<?xml version="1.0" encoding="UTF-8"?>
<svg id="Layer_1" data-name="Layer 1" xmlns="http://www.w3.org/2000/svg" viewBox="0 0 2210.8 1024.07">
  <defs>
    <style>
      .cls-1 {
        fill: none;
      }

      .cls-2 {
        fill: #03051a;
      }

      .cls-3 {
        fill: #f06043;
      }

      .cls-4 {
        fill: #f6ab83;
      }

      .cls-5 {
        fill: #faebdd;
      }

      .cls-6 {
        fill: #cb1b4f;
      }

      .cls-7 {
        fill: #4181c3;
      }

      .cls-8 {
        fill: #3f1b43;
      }

      .cls-9 {
        fill: #841e5a;
      }
    </style>
  </defs>
  <g>
    <polygon class="cls-1" points="711.9 50.2 697.65 42.46 697.64 42.46 697.53 54.52 708.51 56.3 711.9 50.2"/>
    <polygon class="cls-1" points="445.35 156.08 441.38 153 439.84 157.74 439.85 157.74 445.35 156.08"/>
    <polygon class="cls-1" points="431.67 165.28 428.95 168.68 437.81 166.01 436.88 162.9 439.24 165.58 439.25 165.59 441.5 160.64 438 156.52 435.28 159.92 434.99 156.62 432.81 164.14 430.2 158.06 427.95 160.43 429.6 165.9 431.67 165.28"/>
    <polygon class="cls-1" points="117.87 688.38 119.78 691.03 125.51 692.71 127.47 691.94 130.23 690.2 130.87 686.9 132.57 684.38 132.56 684.38 132.77 683.28 132.51 681.52 130.97 680.08 126.89 679.29 122.81 678.5 116.12 681.77 113.94 683.63 113.62 685.28 114.58 686.6 117.87 688.38"/>
    <polygon class="cls-1" points="96.66 691.69 98.94 689.28 102.07 688.74 102.07 688.75 103.4 685.02 101.65 684.68 100.75 686.21 96.82 687.73 95.6 690.91 96.07 691.58 96.66 691.69"/>
    <polygon class="cls-1" points="534.16 200.3 534.36 190.88 530.87 186.77 530.09 204.11 534.16 200.3"/>
    <polygon class="cls-1" points="524.71 193.78 528.68 196.86 528.68 196.86 524.47 190.37 528.61 194.29 529.97 191.3 522.82 187.48 523.89 198.3 524.71 193.78"/>
    <polygon class="cls-1" points="534.04 212.37 537.29 213.08 538.58 207.53 533.33 204.83 534.04 212.37"/>
    <path class="cls-1" d="m242.46,745.55l.11-.55-3.4-1.23-6.37,1.62-2.07-4.96-1.64-.89-1.75-.34-.8.99-1.59,1.97.16,2.31,1.91,2.65,3.18,2.32,1.38-.87,1.64.89-.11,6.82,1.06.78h.01s4.09.8,4.09.8l5.94-1.01c1.48-2.2,2.9-4.44,4.26-6.73l-1.86-.91-4.14-3.66Z"/>
    <path class="cls-1" d="m246.51,796.5l2.28,10.14-2.28,8.68.37,1.21.85,1.88,5.41,3.33,2.02,2.1,1.38-.87,5.47-6.36,3.23-1.08,6-2.83,4.78.35,5.79-1.74,7.48-4.25h0s1.59-1.98,1.59-1.98l-3.77-2.44-2.49-2.76.43-2.2-.85-1.88h-3.02l.27-4.51-1.8-3.2-4.14-3.65-6.47-4.11-6.21-2.34-2.02-1.35c-4.75,6.4-9.95,12.45-15.57,18.08l1.28,1.77Z"/>
    <polygon class="cls-1" points="359.14 155.47 357.63 160.02 362.15 157.95 359.14 155.47"/>
    <polygon class="cls-1" points="357.2 160.15 357.53 160.23 357.62 160.02 357.2 160.15 352.04 159.3 356.18 160.64 357.2 160.15"/>
    <polygon class="cls-1" points="407.3 57.12 411.91 57.43 406.97 43.6 404.23 46.91 407.3 57.12"/>
    <polygon class="cls-1" points="222.45 758.21 224.09 759.1 224.1 759.11 228.98 758.91 228.82 756.6 228.34 755.94 223.93 756.8 222.45 758.21"/>
    <polygon class="cls-1" points="213.71 731.43 205.64 729.3 205.06 729.19 202.46 733.24 203.04 733.35 211.32 734.39 218.11 736.84 219.86 737.18 223.79 735.66 225.38 733.69 223.15 732.69 217.69 732.77 213.71 731.43"/>
    <path class="cls-1" d="m179.76,706.62l-1.96.76-3.66,3.28-6.05-.02,1.54,1.43-.32,1.65,1.43,1.99.26,1.76,1.54,1.44.63,2.98,2.44-.1.99.1c2.5-2.77,4.75-5.78,6.73-8.96l-1.93-5.42-1.64-.88Z"/>
    <polygon class="cls-1" points="399.66 98.81 400.95 93.25 394.98 90.77 396.23 99.84 399.66 98.81"/>
    <polygon class="cls-1" points="217.03 742.34 212.95 741.55 211.1 741.76 210.99 742.32 212.9 744.97 213.16 746.73 213.32 749.04 218.89 748.4 218.89 748.39 219.9 746.31 219.05 744.44 217.03 742.34"/>
    <polygon class="cls-1" points="370.06 157.33 374.67 160.22 378.39 162.49 377.97 160.03 377.97 160.03 377.39 156.82 370.06 157.33"/>
    <polygon class="cls-1" points="562.73 292.67 567.52 291.23 563.91 296.59 569.41 297.52 570.59 298.86 579.16 312.59 579.18 312.59 585.15 309.9 583.37 316.41 596.44 320.23 583.68 300.1 580.89 295.77 560.62 288.23 562.73 292.67"/>
    <polygon class="cls-1" points="404.36 97.37 408.73 96.86 408.44 93.56 404.12 93.97 404.36 97.37"/>
    <polygon class="cls-1" points="855.14 150.74 856.5 152.92 855.79 150.55 855.78 150.54 851.2 145.15 852.67 154.96 855.14 150.74"/>
    <polygon class="cls-1" points="863.47 188.52 863.47 188.53 859.86 193.89 869.26 192.75 863.47 188.52"/>
    <polygon class="cls-1" points="536.9 249.1 539.15 244.15 533.83 241.48 535.77 255.41 544.16 268.29 539.01 258.7 541.97 256.12 537.61 254.05 543.22 242.92 536.9 249.1"/>
    <polygon class="cls-1" points="546.77 224.93 545.15 221.85 543.61 226.59 545.43 227.73 546.77 224.93"/>
    <polygon class="cls-1" points="534.16 222.56 537.34 223.3 534.87 227.52 539.06 231.34 541.13 235.89 542.02 228.76 537.66 226.69 541.95 226.2 541.95 226.18 534.27 213.08 534.16 222.56"/>
    <polygon class="cls-1" points="548.62 228.47 546.77 224.93 546.77 224.93 545.19 229.5 548.62 228.47"/>
    <polygon class="cls-1" points="558.38 263.24 559.49 262.01 561.14 267.48 558.24 255.52 558.38 263.23 558.38 263.24"/>
    <polygon class="cls-1" points="531.15 217.51 532.44 209.37 531.9 205.25 531.15 217.51"/>
    <path class="cls-7" d="m771.04,69.67h.01c-.59-.35-1.17-.69-1.76-1.03l1.71,1.39.04-.36Z"/>
    <path class="cls-7" d="m981.45,336.95h0s10.33-.62,10.33-.62l1.08,3.6.74.13.78,4.93-4.36-2.07,5.47,3.43-5.01.71,7.21-.87c-1.82-5.31-3.71-10.57-5.69-15.8l-6.95-3.97-.83-10-3.78,7.11,10.15,11.47-10.33-1.97,1.18,3.92Z"/>
    <path class="cls-7" d="m1005.59,371.3c-.2-.69-.4-1.37-.6-2.06l-.97,2.8,1.57-.74Z"/>
    <path class="cls-7" d="m654.7,19.88c-2.08-.6-4.16-1.18-6.24-1.75l9.41,14.11-3.17-12.36Z"/>
    <path class="cls-7" d="m738.92,102.75h0l8.46-1.66.29,3.3,2-3.19,7.89,3.69-1.38,5.5-5.5,1.66,4.14,1.34-5.61,11.13,2.76,1.66-2.36,17.02,5.9,17.03,6.19,5.8-1.18-3.92,5.5-1.66,10.87,13.84-.33,6.16,9.75-9.8,42.27,8.67,16.19-8.35,13.94,24.05,17.98,7.42,2.29,5.28,4.14-1.25,1.36-.41-.76-7.44,6.21,3.3-5.32-5.26.65-7.95-16.02-18.26-7.33-2.07,6.75-14.86-1.25-11.13c-7.26-6.96-14.73-13.71-22.39-20.24l-3.88-.54-.59-3.23c-13.5-11.24-27.59-21.8-42.21-31.62l-3.47,12.86-3.03-2.56,1.78-6.51,4.6-3.87c-4.23-2.84-8.51-5.62-12.84-8.34l-2.99,14.79-5.32-5.26-5.93,5.17,1.32-8.06-7.72-18.95c-1.02-.58-2.04-1.15-3.07-1.72l-1.44,9.83-13.32-2.05-4.3,3.08,21.09.43.11,12.8-8.44,4.32.51,9.2-18.15-3.09,1.18,3.92Zm124.55,85.78h0s5.79,4.22,5.79,4.22l-9.4,1.14,3.61-5.36Zm-7.69-37.99h.01s.71,2.38.71,2.38l-1.36-2.18-2.47,4.22-1.47-9.81,4.58,5.39Z"/>
    <path class="cls-7" d="m1004.21,366.52h-.01c-.08-.27-.16-.54-.23-.8l-2.95,1.25,3.19-.45Z"/>
    <path class="cls-7" d="m992.54,420.86h0s-3.5-1.54-3.5-1.54l3.01,2.48-1.89,15.99,10.15,11.47,23.71,27.95c-2.35-35-8.23-69.04-17.26-101.76l-8.47,19.71-3.81,17.37-1.93,8.33Z"/>
    <path class="cls-7" d="m1001.33,357.16h0s-.85,3.11-.85,3.11l1.45-1.22c-.2-.63-.4-1.26-.6-1.89Z"/>
    <path class="cls-7" d="m130.19,442.57c63.44,0,123.08,24.7,167.94,69.56s69.56,104.5,69.56,167.94-24.7,123.08-69.56,167.94c-30.2,30.2-67.11,51.25-107.37,61.79,15.9,12.9,32.59,24.87,49.98,35.83,34.25-14.26,65.72-35.24,92.75-62.27,54.3-54.3,84.21-126.5,84.21-203.29s-29.91-148.99-84.21-203.29c-54.3-54.3-126.5-84.21-203.29-84.21-42.32,0-83.23,9.1-120.54,26.34-3.67,19.96-6.19,40.32-7.47,61.02,37.86-24.32,81.93-37.36,128-37.36Z"/>
    <polygon class="cls-7" points="535.77 255.42 535.77 255.41 535.76 255.4 535.77 255.42"/>
    <path class="cls-7" d="m130.19,217.57c62.43,0,123,12.23,180.03,36.35,55.08,23.29,104.54,56.64,147.01,99.11s75.82,91.93,99.11,147.01c24.12,57.03,36.35,117.6,36.35,180.03s-12.23,123-36.35,180.03c-23.29,55.08-56.64,104.54-99.11,147.01-4.21,4.21-8.5,8.33-12.85,12.37,21.52,2.89,43.46,4.44,65.74,4.58,38.79-42.76,69.79-91.26,92.3-144.5,26.72-63.18,40.27-130.29,40.27-199.48s-13.55-136.31-40.27-199.48c-25.81-61.03-62.77-115.84-109.84-162.91-47.07-47.07-101.88-84.03-162.91-109.84-61.9-26.18-127.58-39.71-195.3-40.24-14.76,16.22-28.48,33.4-41.08,51.42,12.22-.96,24.52-1.45,36.89-1.45Z"/>
    <path class="cls-7" d="m130.19,367.57c83.47,0,161.95,32.51,220.97,91.53s91.53,137.5,91.53,220.97-32.51,161.95-91.53,220.97c-24.92,24.92-53.31,45.09-84.07,60.1,17.89,9.82,36.42,18.61,55.53,26.28,22.88-14.39,44.32-31.44,63.9-51.02,68.47-68.47,106.17-159.5,106.17-256.33s-37.71-187.86-106.17-256.33-159.5-106.17-256.33-106.17c-32.82,0-64.97,4.35-95.8,12.74-7.23,19.04-13.35,38.62-18.3,58.67,35.87-14.05,74.42-21.41,114.1-21.41Z"/>
    <polygon class="cls-7" points="538.58 207.52 538.58 207.53 538.58 207.53 538.58 207.52"/>
    <polygon class="cls-7" points="377.97 160.03 377.97 160.03 377.97 160.03 377.97 160.03"/>
    <path class="cls-7" d="m130.19,292.57c52.31,0,103.06,10.25,150.84,30.46,46.14,19.52,87.58,47.46,123.17,83.04s63.52,77.02,83.04,123.17c20.21,47.78,30.46,98.53,30.46,150.84s-10.25,103.06-30.46,150.84c-19.52,46.14-47.46,87.58-83.04,123.17-16.3,16.3-33.85,30.98-52.5,44,19.8,6.58,40.14,11.98,60.93,16.12,9.27-7.85,18.26-16.09,26.92-24.76,40.18-40.18,71.73-86.97,93.77-139.07,22.81-53.93,34.38-111.22,34.38-170.29s-11.57-116.36-34.38-170.29c-22.04-52.1-53.58-98.88-93.77-139.07-40.18-40.18-86.97-71.73-139.07-93.77-53.93-22.81-111.22-34.38-170.29-34.38-18.34,0-36.52,1.12-54.47,3.34-10.91,17.89-20.75,36.51-29.44,55.75,27.35-6.04,55.4-9.09,83.91-9.09Z"/>
    <polygon class="cls-7" points="546.77 224.92 546.77 224.93 546.77 224.93 546.77 224.92"/>
    <path class="cls-7" d="m510.26,300c32.42,32.42,60.27,68.35,83.23,107.33l-4.04-15.8,2.8-42.73,3.65-.3-4.54-.33,1.71-9.07-2.72.82-4.3-19.2,14.48,3.31-2.89,10.32,3.85-7.13,1.87,8.8-1.29-19.31-4.83-3.63-.29-8.47-5.28,2.39,2.96-2.58-1.9-3.71-.71-2.37-.86,2.04-2.03,3.11-3.97-3.08,3.39-6.1-5.43,1.63.33-.99-3.82-.54,1.14-3.73-1.78,3.92-3.97-3.08,5.5-4.24-5.03,3.21-2.05-1.88,2.71-.82-9.4-1.45,6.14-1.85-7.57-.31,4.54-2.26-4.54-.33,4.07-3.81-2.96,2.58-1.4-4.66,5.86-10.32-5.93,5.17-.46-4.14-2.96,2.58,4.57-4.76-7.22-11.55,5.75,1.75-4.14-1.34.65-5.36-4.54,7.43-4.68-8.04,3.68-2.8-5.32-2.67.47-3.62,4.96-3.19-2.72-1.77,2.6-11.03-2.18,7.52-4.79,6.61,1.54-12.49-1.4-4.66-3.67,2.8-3.68,2.8,5.21-7.54-10.87-13.84,3.19-1.85-2.12-4.44,3.25,3.3-3.5-4.12,2.79-.84-4.61-2.89,2.65-5.97-2.72,3.4-2.93-2.5-.58-14.35-1.27,15.71-4.61-2.89.35-8.66-1.11,3.81-3.65-4.87,3.69,9.94-3.43,1.03-12.98-20.87,3.14-4.33-.6,5.26,2.96-2.58-2.61-3.49-3.18,1.85-1.78,1.34-3.79-7.41-14.4-3.33-1.25-6.49-5.01-1.88,1.04-3.79-2.94.08,2.72-.82-2.71-1.77,2.96-2.58-5.5,1.66.4-3.6-2.96,2.58,2.25-4.95-6.37,3.7,1.87,6.21-4.07,3.81-4.19-3.82-1.53,4.74-.25-3.4-1.11,3.81-11,.73,5.9-5.25-4.36-2.07,6.82-9.71,5.65-.9,5.32,5.26-3.47-6.62,5.5-1.66-6.46-1.53-25.08,13.52-1.83,4.03,3.47,4.03-7.26,5.66-8.29-.09-28.26,12.78.42-3.51-.96-.6-7.97.71.4-3.6-4.07,3.81-2.12-4.44-1.78,3.92-1.43-2.15-2.43.73h0s0,0,0,0l.42,2.46-3.72-2.27-4.61-2.89,7.33-.51.58,3.21h0s5.63-2.5,5.63-2.5l6.61-2.88,5.54,6,2.74-5.9,2-.6,16.26-3.2,4.25-10.73,6.17-4.35-7.35.43,1.14-6.31-5.43,6.8-1.25-9.07-.71-2.37-9.4-1.45,5.21-2.37,3.54-13.1-9.15-3.22,3.61-7.95,4.14,1.34-3.08-5.04.29,3.3-4.37.51-.24-3.4,4.32-.41-1.36-2.18,2.72-.82-3.01-2.48.65-5.36,16.61-11.86,2.39,5.34,6.61-2.88,3.25,3.3,3.61-2.78.89-7.13,4.79-1.44-2.54-3.51-6.86,2.06,1.14-3.73-1.6,2.18-8.11-9.59,1.96-8.25,3.5,1.53-2.83-9.4,16.01,1.15-1.78,6.51,8.58,5.97,1.71-11.65-.89,7.13,4.21,3.9-3.5-4.12,2.96-5.17-5.54-6,2.65-5.97-1.71-13.21,5.03-3.21,6.43,4.03,10.96-5.79,3.18-1.85,6.93.5-1.21,1.17-.15,1.83,4.07-3.81,4.61,2.89,7.33-3.1.25,3.4-3.46,3.54,4.64-2.2.69,4.87,5.33,2.67-2.3,2.47,2.76,4.25,23.54,13.5,2.05,1.88,6.99,8.23,14.12,14.55-1.5-7.3,6.88-4.57.29,5.88,4.29-.49,10.32-5.6,4.29-3.07-2,3.19-4.57,7.35,11.42-6.82,2.72-.82-1.65-5.47,3.54,6.6,4.19,8.99,3.63-7.87.86-2.04-.22,1.85.04,7.65,9.82-4.65,7.15,3.82,11.54,5.97h8.26l4.61,5.48-5.26,2.47.76,4.85h14.18l6.64-5.38,10.33,7.14-2,3.19,7.39,7.22-4.21-6.49,3.26.71-.29-3.3-5.79-6.81,7.68-11.76-6.08,7-5.57-.91,9.11-9.6,7,8.23,6.14-1.85,6.65,4.77,8.93-2.69,4.57-2.18-.71-4.95,7.64,5.45-1.67-5.56-3.18,1.85-3.72-4.85,5.03-3.21,4.12,1.26.24,3.4,1.76-4,.85,10.08,6.36,1.47-4.43-9.81,4.97-8.36-2.76-4.25-1.78,3.92-1.25-6.48,2.86-1.57c-.25-.11-.5-.22-.75-.32l-11.25-1.32-.47-1.55-.47-2.2c-12.32-4.94-24.88-9.42-37.65-13.41l4.36,12.93,15.43,6.49.47,1.55,1.18,3.92-3.01-2.48-2.67,5.88-4.14-1.34,2.78,6.92,2-5.77,3.72,4.85-12.76,4.73-6.98-5.56-7.93,10.94-16.43,4.95-2.61-6.08-11.47-3.41-3.47-6.62-.25-.82,22.18-5.78-9.25-3.28-14.19,2.58-2.29-5.28,11.65-6.09-11.22,2.58,2-3.19-4.79-1.14,1.96-8.25,13.25-10.85-.21,9.42,5.68-5.99,5.32,2.67-2.25,4.95,3.68-.22.42-3.51,3.4,1.47-3.87-5.61,2.51-.76c-5.89-1.61-11.83-3.11-17.81-4.51l.33.32-15.92,16.73-1.11,1.23-1.14,6.31-9.11,4.43-4.65-10.54-3.9-.52,9.86-19.28-1.74-4.32c-29.15-5.16-59.15-7.85-89.78-7.85C375.21.03,250.07,54.59,158.02,143.28c62.73,3.18,123.63,17.11,181.39,41.54,64.01,27.07,121.49,65.83,170.85,115.19Zm70.63-4.23l2.79,4.33,12.76,20.13-13.07-3.82,1.78-6.51-5.97,2.69h-.02l-8.57-13.73-1.18-1.34-5.5-.93,3.61-5.36-4.79,1.44-2.11-4.44,20.27,7.54Zm-19.75-28.29l-1.65-5.47-1.11,1.23h0s-.14-7.72-.14-7.72l2.9,11.96Zm-29.99-49.97l.75-12.26.54,4.12-1.29,8.14Zm14,4.34l1.62,3.08h0s0,0,0,0h0s1.85,3.54,1.85,3.54l-3.43,1.03h0,0l1.58-4.57h0s-1.34,2.8-1.34,2.8l-1.82-1.14,1.54-4.74Zm-3.18,34.27l-2.96,2.58,5.15,9.59-8.39-12.88h0s-.01-.01-.01-.01h0s-1.94-13.92-1.94-13.92l5.32,2.67-2.25,4.95,6.32-6.18-5.61,11.13,4.36,2.07Zm-.02-29.94v.02s-4.29.49-4.29.49l4.36,2.07-.89,7.13-2.07-4.55-4.19-3.82,2.47-4.22-3.18-.74.11-9.48,7.68,13.1Zm-3.37-18.65h0s0,0,0,0h0s-1.29,5.55-1.29,5.55l-3.25-.71-.71-7.54,5.25,2.7Zm-7.72-20.77h.01s0,.01,0,.01l3.49,4.11-.2,9.42-4.07,3.81.78-17.34h0Zm-.89,4.54l-1.36,2.99-4.14-3.92,4.21,6.49h0s-3.97-3.08-3.97-3.08l-.82,4.52-1.07-10.82,7.15,3.82Zm-88.59-38.3l3.97,3.08-5.5,1.66h0l1.54-4.74Zm-11.18,5.06l2.61,6.08,2.18-7.52.29,3.3,2.72-3.4,3.5,4.12-2.25,4.95h0s-2.36-2.69-2.36-2.69l.93,3.11-8.86,2.67,2.72-3.4-2.07.62-1.65-5.47,2.25-2.37Zm267.44-115.6h.01l14.25,7.74-3.39,6.1-10.98-1.78.11-12.06Zm-290.68,1.13h.01,0s4.95,13.84,4.95,13.84l-4.61-.31-3.07-10.21,2.73-3.31h0Zm-6.01,49.66l-1.29,5.56-3.43,1.03-1.25-9.07,5.97,2.48Zm-43.75,66.9l.42-.13h0s0,0,0,0l1.51-4.55,3.01,2.48-4.52,2.07h-.01s-.09.21-.09.21l-.33-.08-1.02.49-4.14-1.34,5.16.85Z"/>
    <path class="cls-7" d="m5.2,576.35c29.83-35.89,74.79-58.78,125-58.78,89.6,0,162.5,72.9,162.5,162.5,0,36.14-11.86,69.55-31.89,96.57l2.02,1.35,6.21,2.34,6.47,4.11,4.14,3.65,1.8,3.2-.27,4.51h3.02l.85,1.88-.43,2.2,2.49,2.76,3.77,2.44-1.59,1.97h0s-7.48,4.26-7.48,4.26l-5.79,1.74-4.78-.35-6,2.83-3.23,1.08-5.47,6.36-1.38.87-2.02-2.1-5.41-3.33-.85-1.88-.37-1.21,2.28-8.68-2.28-10.14-1.28-1.77c-29.44,29.54-70.14,47.84-115.04,47.84-2.76,0-5.5-.07-8.23-.21,14.03,16.61,29.11,32.3,45.12,46.99,99.65-17.51,175.61-104.69,175.61-209.29,0-117.17-95.33-212.5-212.5-212.5-48.47,0-93.2,16.33-129,43.75,0,.25,0,.5,0,.75,0,21.77,1.36,43.23,4,64.28Z"/>
    <polygon class="cls-7" points="406.96 43.59 406.97 43.6 406.97 43.59 406.96 43.59"/>
    <polygon class="cls-7" points="357.62 160.02 357.62 160.02 357.63 160.02 357.62 160.02"/>
    <path class="cls-7" d="m1025.19,512.07c0-3.43-.04-6.84-.11-10.25l-1.22-4.04-7.55-.22-7.61-10.54-2.96,2.58-5.08-4.44-.54-6.7-2.96,2.58-3.54-11.77-14.08-6.9-1.58-.33-3.67.21-2,3.19-5.21,7.54-3.25-3.3-2.29-2.7-8,3.21,2.25-2.37-8,5.79.42-3.51-6.96,8.96,1.29-2.97-3.43-4.14.96,5.77-19.17,10.85,7.33-.51,4.39-.43-2.72,5.99,7.79,1.04-2.25,4.95-6.04-5.04-4.29.49,3,5.07-4.14-1.34-2.25,4.95-11.94-4.96-2.96,5.17-14.68,3.53-7.43,7.41,2-3.19-5.25-.11,1.65,8.06-8.17,10.12,1.61-2.18-6.37,1.11,3.65,2.29-6.39,6.2,1.07,10.82-3.43,1.03,3.65-.3,7.21,14.14-.13,11.98-.04-5.07-3.38,3.51,1.89,8.88,7.33,21.77,2.53,6.1,31.67,30.66,6.61-2.88,9.71,4.83,18.62-15.05,8.04-.73,4.67-14.24-2.22-19.83,17.5-16.41,13.96-3.31-2.09,22.82,3.67-.21,1.51,17.46-6.17-4.15-4.63,13.16-17.46,8.86,1.97,6.34-2.91,2.28,11.34,3.3,1.58,4.2-12.66,5.59.98,18.59-27.27-8.14-21.47,13.32-39.44-1.85-12.18-.61-11.22-5.18h-17.22l-26.06-14.33-3.43-4.14,4.32-2.99-3.5-1.53,1.31-8.06-12.05-15.18-25.77-16.22-1.65-5.47-14.97-4.94.82-7.11-16.62-10.42-1.16-6.42-5.99.02-13.16-11.37-1.53-2.75,1.57,5.23-3.01-2.48,1.31-2.89.05-.1-4.9-8.77-8.15-14.66-18.37-6.41,7.48,22.52,20.33,17.85,3.08,7.63,15.23,13.33,13.54,25.06,9.62,2.18,5.79,9.4-4.72,4-5.15-7.01-21.62-12.3-3.86-15.15-11.76-9.29-3.36,3.6-16.84-11.15h11.22l-3.97-3.07,1.14-6.31-18.73-14.86-2.32-2.78-21.45-38.9-11.04-9.51-14.01-4.34-.38-.11c20.83,58.03,31.38,118.91,31.38,181.4,0,72.56-14.21,142.95-42.24,209.22-20.56,48.62-47.87,93.47-81.45,133.86,268.42-15.93,481.19-238.65,481.19-511.08Z"/>
    <polygon class="cls-7" points="202.45 733.25 202.46 733.24 202.45 733.24 202.45 733.25"/>
    <polygon class="cls-7" points="530.86 186.76 530.87 186.77 530.87 186.77 530.86 186.76"/>
    <path class="cls-7" d="m130.19,742.57c18.4,0,34.96-7.99,46.41-20.68l-.99-.1-2.44.1-.63-2.98-1.54-1.44-.26-1.76-1.43-1.99.32-1.65-1.54-1.43,6.05.02,3.66-3.28,1.96-.76,1.64.88,1.93,5.42c5.93-9.55,9.36-20.81,9.36-32.85,0-34.46-28.04-62.5-62.5-62.5s-62.5,28.04-62.5,62.5,28.04,62.5,62.5,62.5Zm-16.25-58.94l2.18-1.86,6.69-3.27,4.08.79,4.08.79,1.54,1.44.26,1.76-.21,1.1h.01s-1.7,2.52-1.7,2.52l-.64,3.3-2.76,1.74-1.96.77-5.73-1.68-1.91-2.65-3.29-1.78-.96-1.32.32-1.65Zm-17.12,4.1l3.93-1.52.9-1.53,1.75.34-1.33,3.73h0s-3.13.53-3.13.53l-2.28,2.41-.59-.11-.47-.67,1.22-3.18Z"/>
    <path class="cls-7" d="m130.19,817.57c47.41,0,89.29-24.12,114.02-60.72l-5.94,1.01-4.09-.79h-.01s-1.06-.79-1.06-.79l.11-6.82-1.64-.89-1.38.87-3.18-2.32-1.91-2.65-.16-2.31,1.59-1.97.8-.99,1.75.34,1.64.89,2.07,4.96,6.37-1.62,3.4,1.23-.11.55,4.14,3.66,1.86.91c12.21-20.53,19.23-44.48,19.23-70.05,0-75.82-61.68-137.5-137.5-137.5-50.97,0-95.54,27.87-119.29,69.18,14.71,74.56,45.61,143.31,88.88,202.43,9.79,2.22,19.96,3.4,30.41,3.4Zm88.7-69.18h0s-5.57.65-5.57.65l-.16-2.31-.26-1.76-1.91-2.65.11-.56,1.85-.21,4.08.79,2.02,2.1.85,1.87-1.01,2.08Zm9.45,7.55l.48.66.16,2.31-4.88.2h0s-1.64-.9-1.64-.9l1.48-1.41,4.41-.86Zm-2.96-22.25l-1.59,1.97-3.93,1.52-1.75-.34-6.79-2.45-8.28-1.04-.58-.11h0s0,0,0,0h0s2.6-4.05,2.6-4.05l.58.11,8.07,2.13,3.98,1.34,5.46-.08,2.23,1Zm-95.19-141.12c48.25,0,87.5,39.25,87.5,87.5s-39.25,87.5-87.5,87.5-87.5-39.25-87.5-87.5,39.25-87.5,87.5-87.5Z"/>
    <path class="cls-2" d="m181.55,722.37l2.6,2.21,3.71-.42-.11.55h.01s2.66-1.21,2.66-1.21l-1.65-.88-.16-2.31-1.06-.78.32-1.65-1.17-.23-.9,1.54-2.02-2.11-.26-1.76.79-.98-.37-1.22-.58-.11-.03-.09c-1.98,3.19-4.23,6.19-6.73,8.96l4.95.48Z"/>
    <path class="cls-2" d="m130.19,767.57c48.25,0,87.5-39.25,87.5-87.5s-39.25-87.5-87.5-87.5-87.5,39.25-87.5,87.5,39.25,87.5,87.5,87.5Zm0-150c34.46,0,62.5,28.04,62.5,62.5,0,12.05-3.43,23.3-9.36,32.85l.03.09.58.11.37,1.22-.79.98.26,1.76,2.02,2.11.9-1.54,1.17.23-.32,1.65,1.06.78.16,2.31,1.65.88-2.66,1.21h-.01s.11-.55.11-.55l-3.71.42-2.6-2.21-4.95-.48c-11.45,12.69-28.01,20.68-46.41,20.68-34.46,0-62.5-28.04-62.5-62.5s28.04-62.5,62.5-62.5Z"/>
    <path class="cls-6" d="m442.69,680.07c0-83.47-32.51-161.95-91.53-220.97s-137.5-91.53-220.97-91.53c-39.68,0-78.23,7.36-114.1,21.41-2.43,9.87-4.58,19.85-6.43,29.93,37.3-17.24,78.22-26.34,120.54-26.34,76.79,0,148.99,29.91,203.29,84.21,54.3,54.3,84.21,126.5,84.21,203.29s-29.91,148.99-84.21,203.29c-27.03,27.03-58.49,48.01-92.75,62.27,8.61,5.42,17.4,10.6,26.35,15.51,30.76-15.01,59.16-35.18,84.07-60.1,59.02-59.02,91.53-137.5,91.53-220.97Z"/>
    <path class="cls-9" d="m367.72,678.74c-.46-63.44-25.6-122.9-70.78-167.43-45.18-44.53-105-68.8-168.44-68.34-46.07.33-90.05,13.7-127.73,38.29-.57,10.39-.83,20.86-.76,31.4,35.59-27.69,80.2-44.34,128.67-44.69,117.17-.85,213.19,93.78,214.03,210.95.76,104.59-74.57,192.32-174.09,210.56,7.73,6.99,15.68,13.76,23.83,20.27,40.18-10.83,76.93-32.15,106.92-62.57,44.53-45.18,68.8-105,68.34-168.44Z"/>
    <path class="cls-8" d="m244.53,756.79l3.13-.54,2.76-1.75.42-2.19-.37-1.21-2.01-.98c-1.36,2.28-2.77,4.53-4.26,6.73l.32-.06Z"/>
    <path class="cls-8" d="m257.14,772.9l-3.4-1.23-1.27.32-1.01,2.09.16,2.31,2.17,4.41-.43,2.2-5.04,4.15-4.14,2.62-.91,1.54,1.33,2.54.63.88c5.62-5.63,10.82-11.68,15.57-18.08l-2.81-1.87-.85-1.87Z"/>
    <path class="cls-8" d="m245.24,794.73l-.63-.88-1.33-2.54.91-1.54,4.14-2.62,5.04-4.15.43-2.2-2.17-4.41-.16-2.31,1.01-2.09,1.27-.32,3.4,1.23.85,1.87,2.81,1.87c20.03-27.02,31.89-60.43,31.89-96.57,0-89.6-72.9-162.5-162.5-162.5-50.21,0-95.17,22.89-125,58.78,1.49,11.93,3.4,23.73,5.71,35.39,23.75-41.3,68.33-69.18,119.29-69.18,75.82,0,137.5,61.68,137.5,137.5,0,25.57-7.02,49.52-19.23,70.05l2.01.98.37,1.21-.42,2.19-2.76,1.75-3.13.54-.32.06c-24.73,36.61-66.61,60.72-114.02,60.72-10.45,0-20.62-1.18-30.41-3.4,7.07,9.66,14.47,19.06,22.18,28.19,2.73.14,5.47.21,8.23.21,44.9,0,85.6-18.31,115.04-47.84Z"/>
    <path class="cls-3" d="m487.24,830.91c20.21-47.78,30.46-98.53,30.46-150.84s-10.25-103.06-30.46-150.84c-19.52-46.14-47.46-87.58-83.04-123.17s-77.02-63.52-123.17-83.04c-47.78-20.21-98.53-30.46-150.84-30.46-28.51,0-56.55,3.05-83.91,9.09-4.24,9.4-8.21,18.95-11.89,28.64,30.83-8.39,62.98-12.74,95.8-12.74,96.83,0,187.86,37.71,256.33,106.17s106.17,159.5,106.17,256.33-37.71,187.86-106.17,256.33c-19.58,19.58-41.02,36.64-63.9,51.02,9.55,3.83,19.25,7.39,29.08,10.65,18.65-13.02,36.19-27.69,52.5-44,35.58-35.58,63.52-77.02,83.04-123.17Z"/>
    <path class="cls-4" d="m556.34,860.1c24.12-57.03,36.35-117.6,36.35-180.03s-12.23-123-36.35-180.03c-23.29-55.08-56.64-104.54-99.11-147.01s-91.93-75.82-147.01-99.11c-57.03-24.12-117.6-36.35-180.03-36.35-12.38,0-24.68.49-36.89,1.45-6.13,8.77-11.99,17.73-17.58,26.89,17.95-2.22,36.13-3.34,54.47-3.34,59.07,0,116.36,11.57,170.29,34.38,52.1,22.04,98.88,53.58,139.07,93.77,40.18,40.18,71.73,86.97,93.77,139.07,22.81,53.93,34.38,111.22,34.38,170.29s-11.57,116.36-34.38,170.29c-22.04,52.1-53.58,98.88-93.77,139.07-8.67,8.67-17.66,16.9-26.92,24.76,10.47,2.09,21.06,3.85,31.75,5.29,4.35-4.03,8.64-8.15,12.85-12.37,42.47-42.47,75.82-91.93,99.11-147.01Z"/>
    <path class="cls-5" d="m591.74,421.68l6.84,20.13,7.22,11.55,6.39-1.03,2.36,7.84-4.14-3.92,1.4,7.24,18.4,26.19.69,7.46,5.41,1.53c-3.36-9.35-6.97-18.63-10.86-27.82-9.29-21.96-19.95-43.16-31.95-63.52l.42,1.66-2.18,12.69Z"/>
    <path class="cls-5" d="m667.69,680.07c0-62.49-10.55-123.37-31.38-181.4l-5.41-1.53-.69-7.46-18.4-26.19-1.4-7.24,4.14,3.92-2.36-7.84-6.39,1.03-7.22-11.55-6.84-20.13,2.18-12.69-.42-1.66c-22.97-38.98-50.81-74.91-83.23-107.33-49.36-49.36-106.84-88.11-170.85-115.19-57.77-24.43-118.66-38.36-181.39-41.54-8.14,7.85-16.03,15.95-23.64,24.32,67.71.54,133.4,14.06,195.3,40.24,61.03,25.81,115.84,62.77,162.91,109.84,47.07,47.07,84.03,101.88,109.84,162.91,26.72,63.18,40.27,130.29,40.27,199.48s-13.55,136.31-40.27,199.48c-22.52,53.23-53.51,101.73-92.3,144.5,1.02,0,2.05.02,3.07.02,10.34,0,20.62-.32,30.81-.92,33.57-40.39,60.88-85.24,81.45-133.86,28.03-66.27,42.24-136.67,42.24-209.22Z"/>
  </g>
  <g>
    <path class="cls-9" d="m1155.26,831.23v-199.51c0-9.26,5.05-13.89,15.14-13.89h9.21c3.62,0,6.61.54,8.97,1.62,2.36,1.08,3.92,2.62,4.69,4.63s1.21,3.52,1.32,4.55c.11,1.03.17,2.52.17,4.47v117.11c6.07-5.66,13.73-12.81,22.99-21.45,14.5-13.68,23.5-21.68,27-23.99,3.5-2.31,8.33-3.47,14.5-3.47h20.83c4.63.21,7.25,2.11,7.87,5.71-.21,2.57-2.16,5.63-5.86,9.18s-19.54,18.18-47.52,43.9c.21.21,18.41,24.12,54.62,71.75,2.06,2.98,3.14,5.4,3.24,7.25,0,4.63-3.19,6.94-9.57,6.94h-16.66c-4.22,0-7.43-.51-9.64-1.54-2.21-1.03-4.91-3.55-8.1-7.56l-39.81-52.46-14.5,13.27v34.41c0,9.26-5.05,13.89-15.16,13.89h-8.07c-3.63,0-6.62-.46-8.98-1.39s-3.95-2.29-4.78-4.09c-.82-1.8-1.35-3.34-1.56-4.63-.22-1.29-.33-2.85-.33-4.71Z"/>
    <path class="cls-9" d="m1363.81,802.68c0-8.23,2.46-15.38,7.38-21.45,4.92-6.07,10.82-10.8,17.71-14.2s15.04-6.09,24.46-8.1,17.58-3.32,24.46-3.93,13.85-.93,20.89-.93v-6.46c0-8.82-1.49-15.79-4.46-20.9-2.97-5.11-8.97-7.67-18-7.67-8.25,0-15.76,1.06-22.52,3.18-6.76,2.12-11.77,4.48-15.02,7.09-3.25,2.61-6.32,5.03-9.2,7.24-2.88,2.22-5,3.32-6.37,3.32l-1.26-.21-1.26-.63c-.63-1.03-1.21-3.59-1.73-7.7-.53-4.11-.89-7.86-1.1-11.25l-.47-5.39c0-1.03.08-1.8.24-2.31.16-.51.55-1.1,1.18-1.77.63-.67,1.1-1.1,1.41-1.31.31-.2,1.23-.61,2.75-1.23,1.52-.62,2.7-1.14,3.54-1.57,15.2-7.07,31.8-10.61,49.8-10.61,24.06,0,41.01,4.53,50.87,13.58,9.86,9.05,14.79,22.12,14.79,39.19v83.17c0,9.46-4.77,14.2-14.3,14.2h-15.23c-4.66,0-8-1.26-10.02-3.78-2.02-2.52-3.03-5.48-3.03-8.87-13.98,10.7-30.34,16.1-49.08,16.2-14.19,0-25.47-4.86-33.86-14.58-8.38-9.72-12.58-20.5-12.58-32.33Zm42.28,0c0,6.07,2,11.55,6,16.43,4,4.89,9.23,7.33,15.7,7.33,7.18,0,14.13-2.26,20.84-6.79,6.72-4.53,10.08-11.93,10.08-22.22v-24.69c-6.46.62-12.03,1.29-16.69,2.01-4.67.72-10.15,2.08-16.46,4.09s-11.13,5.07-14.46,9.18c-3.33,4.12-5,9-5,14.66Z"/>
    <path class="cls-9" d="m1592.88,775.22c0-15.12,2.05-28.06,6.17-38.81,4.11-10.75,9.76-18.98,16.95-24.69,7.19-5.71,14.77-9.77,22.73-12.19,7.96-2.42,16.77-3.63,26.43-3.63,5.45,0,10.25.1,14.41.31,4.16.21,9.22.9,15.19,2.08,5.96,1.18,11.15,2.83,15.57,4.94,4.42,2.11,9.07,5.17,13.95,9.18,4.88,4.01,8.89,8.74,12.03,14.2,3.13,5.45,5.7,12.45,7.71,20.98,2,8.54,3.01,18.16,3.01,28.85,0,48.66-25.59,73.03-76.76,73.14-51.59-.1-77.38-24.89-77.38-74.37Zm43.2,3.24c.21,5.45.41,9.54.62,12.27.21,2.73.96,6.69,2.24,11.88,1.29,5.2,2.99,9.1,5.1,11.73,2.11,2.62,5.39,5.04,9.82,7.25,4.43,2.21,9.82,3.32,16.16,3.32s11.73-1.1,16.16-3.32c4.43-2.21,7.76-4.76,9.98-7.64,2.21-2.88,3.94-6.79,5.18-11.73,1.24-4.94,1.96-9.13,2.17-12.58.21-3.45.31-7.84.31-13.19v-10.96c0-4.42-.1-7.74-.31-9.95-.21-2.21-.57-5.53-1.08-9.95-.52-4.42-1.52-7.89-3.01-10.42-1.5-2.52-3.46-5.22-5.88-8.1-2.42-2.88-5.64-4.94-9.67-6.17s-8.76-1.85-14.23-1.85c-6.5,0-12.01,1.16-16.55,3.47-4.54,2.31-7.86,4.89-9.97,7.71-2.11,2.83-3.76,7.05-4.95,12.65-1.19,5.61-1.83,9.93-1.93,12.96-.1,3.04-.15,7.69-.15,13.96v8.64Z"/>
    <path class="cls-9" d="m1839.53,775.22c0-15.12,2.05-28.06,6.17-38.81,4.11-10.75,9.76-18.98,16.95-24.69,7.19-5.71,14.77-9.77,22.73-12.19,7.96-2.42,16.77-3.63,26.43-3.63,5.45,0,10.25.1,14.41.31,4.16.21,9.22.9,15.19,2.08,5.96,1.18,11.15,2.83,15.57,4.94,4.42,2.11,9.07,5.17,13.95,9.18,4.88,4.01,8.89,8.74,12.03,14.2,3.13,5.45,5.7,12.45,7.71,20.98,2,8.54,3.01,18.16,3.01,28.85,0,48.66-25.59,73.03-76.76,73.14-51.59-.1-77.38-24.89-77.38-74.37Zm43.2,3.24c.21,5.45.41,9.54.62,12.27.21,2.73.96,6.69,2.24,11.88,1.29,5.2,2.99,9.1,5.1,11.73,2.11,2.62,5.39,5.04,9.82,7.25,4.43,2.21,9.82,3.32,16.16,3.32s11.73-1.1,16.16-3.32c4.43-2.21,7.76-4.76,9.98-7.64,2.21-2.88,3.94-6.79,5.18-11.73,1.24-4.94,1.96-9.13,2.17-12.58.21-3.45.31-7.84.31-13.19v-10.96c0-4.42-.1-7.74-.31-9.95-.21-2.21-.57-5.53-1.08-9.95-.52-4.42-1.52-7.89-3.01-10.42-1.5-2.52-3.46-5.22-5.88-8.1-2.42-2.88-5.64-4.94-9.67-6.17s-8.76-1.85-14.23-1.85c-6.5,0-12.01,1.16-16.55,3.47-4.54,2.31-7.86,4.89-9.97,7.71-2.11,2.83-3.76,7.05-4.95,12.65-1.19,5.61-1.83,9.93-1.93,12.96-.1,3.04-.15,7.69-.15,13.96v8.64Z"/>
    <path class="cls-9" d="m2084.8,648.23v-15.74c0-3.39.36-6.15,1.08-8.25.72-2.11,2.03-3.6,3.93-4.47,1.9-.87,3.32-1.36,4.24-1.47.93-.1,2.57-.26,4.94-.46h16.05c4.42,0,7.97,1,10.65,3.01,2.67,2.01,4.01,5.89,4.01,11.65v16.36c0,1.65-.18,3.16-.54,4.55-.36,1.39-.8,2.55-1.31,3.47-.52.93-1.13,1.77-1.85,2.55-.72.77-1.47,1.31-2.24,1.62s-1.62.62-2.55.93-1.65.46-2.16.46-1.18.1-2.01.31h-17.74c-4.42,0-7.95-1-10.57-3.01s-3.93-5.84-3.93-11.5Zm1.23,182.07v-114.8c0-9.46,4.63-14.2,13.89-14.2h12.96c4.63,0,8.15.85,10.57,2.55,2.42,1.7,3.83,3.5,4.24,5.4.41,1.91.62,4.5.62,7.79v114.8c0,9.46-4.63,14.2-13.89,14.2h-14.5c-4.42,0-7.74-1.05-9.95-3.16-2.21-2.11-3.42-3.99-3.63-5.63-.21-1.64-.31-3.96-.31-6.94Z"/>
  </g>
</svg>